<svg width="25" height="24" viewBox="0 0 25 24" fill="none" xmlns="http://www.w3.org/2000/svg">
<path d="M12.4475 0.0139453C14.0333 0.0139453 15.5479 0.323945 16.9913 0.943945C18.4346 1.56395 19.6796 2.39728 20.7263 3.44395C21.7729 4.49061 22.6063 5.73561 23.2263 7.17895C23.8463 8.62228 24.1563 10.1369 24.1563 11.7227C24.1563 13.8369 23.6329 15.7935 22.5863 17.5927C21.5396 19.3919 20.1167 20.8148 18.3175 21.8614C16.5183 22.9081 14.5617 23.4314 12.4475 23.4314C11.2892 23.4314 10.1813 23.2789 9.12375 22.9739C9.71292 22.0181 10.1092 21.1744 10.3125 20.4427L11.1363 17.2414C11.3396 17.6273 11.7158 17.9677 12.265 18.2627C12.8142 18.5577 13.3933 18.7052 14.0025 18.7052C15.2225 18.7052 16.315 18.3544 17.28 17.6527C18.245 16.951 18.9921 15.9906 19.5213 14.7714C20.0504 13.5523 20.3146 12.1802 20.3138 10.6552C20.3138 8.84603 19.6175 7.27561 18.225 5.94395C16.8325 4.61228 15.0588 3.94645 12.9038 3.94645C11.5821 3.94645 10.3725 4.1702 9.275 4.6177C8.1775 5.0652 7.29334 5.64978 6.6225 6.37145C5.95167 7.09311 5.43834 7.87561 5.0825 8.71895C4.72667 9.56228 4.54875 10.411 4.54875 11.2652C4.54875 12.3219 4.74709 13.2469 5.14375 14.0402C5.54042 14.8335 6.135 15.3927 6.9275 15.7177C7.07 15.7785 7.19209 15.7835 7.29375 15.7327C7.39542 15.6819 7.46667 15.5852 7.5075 15.4427C7.65 14.9344 7.73125 14.6194 7.75125 14.4977C7.83292 14.2744 7.78209 14.061 7.59875 13.8577C7.07042 13.2685 6.80625 12.506 6.80625 11.5702C6.80625 10.0252 7.34 8.69895 8.4075 7.59145C9.475 6.48395 10.8725 5.9302 12.6 5.9302C14.125 5.9302 15.3142 6.34686 16.1675 7.1802C17.0208 8.01353 17.4479 9.10103 17.4488 10.4427C17.4488 11.561 17.2963 12.5927 16.9913 13.5377C16.6863 14.4827 16.2492 15.2398 15.68 15.8089C15.1108 16.3781 14.4604 16.6627 13.7288 16.6627C13.1188 16.6627 12.6208 16.4389 12.235 15.9914C11.8492 15.5439 11.7271 15.0152 11.8688 14.4052C11.9504 14.1202 12.0571 13.7544 12.1888 13.3077C12.3204 12.861 12.4321 12.4798 12.5238 12.1639C12.6154 11.8481 12.7017 11.5077 12.7825 11.1427C12.8633 10.7777 12.9042 10.4727 12.905 10.2277C12.905 9.71936 12.7729 9.3027 12.5088 8.9777C12.2446 8.6527 11.8583 8.4902 11.35 8.4902C10.72 8.4902 10.1913 8.77978 9.76375 9.35895C9.33625 9.93811 9.12292 10.6648 9.12375 11.5389C9.12375 11.8639 9.14917 12.1789 9.2 12.4839C9.25084 12.7889 9.30667 13.0127 9.3675 13.1552L9.45875 13.3689C8.62542 16.9873 8.11709 19.1114 7.93375 19.7414C7.77125 20.5139 7.71042 21.4185 7.75125 22.4552C5.65709 21.5202 3.96459 20.0869 2.67375 18.1552C1.38292 16.2235 0.737503 14.0789 0.737503 11.7214C0.737503 8.48894 1.88084 5.72936 4.1675 3.4427C6.45417 1.15603 9.21375 0.0126953 12.4463 0.0126953L12.4475 0.0139453Z" fill="#444444"/>
</svg>
